<?xml version="1.0" encoding="iso-8859-1"?>
<!-- Uploaded to: SVG Repo, www.svgrepo.com, Generator: SVG Repo Mixer Tools -->
<svg fill="#000000" height="800px" width="800px" version="1.1" id="Capa_1" xmlns="http://www.w3.org/2000/svg" xmlns:xlink="http://www.w3.org/1999/xlink" 
	 viewBox="0 0 59.716 59.716" xml:space="preserve">
<g>
	<path d="M56.86,22.62l-3.385-3.404c-0.849-0.854-2.147-1.173-3.23-0.79c-0.943,0.334-1.609,1.075-1.827,2.032
		c-0.094,0.411-0.098,0.842-0.021,1.259H32.984V9.308c0.189,0.034,0.382,0.052,0.576,0.052c1.258,0,2.298-0.729,2.715-1.902
		c0.39-1.098,0.08-2.366-0.79-3.231l-3.403-3.385c-1.129-1.122-3.09-1.123-4.221,0l-3.513,3.492
		c-0.565,0.562-0.876,1.31-0.877,2.105c0,0.796,0.311,1.544,0.877,2.107c0.659,0.656,1.672,0.938,2.636,0.759v12.411H11.483
		c0.096-0.917-0.215-1.897-0.923-2.61c-1.125-1.131-3.088-1.131-4.212,0L2.855,22.62c-1.158,1.162-1.158,3.056,0,4.22l3.494,3.513
		c1.125,1.131,3.088,1.131,4.213,0c0.714-0.72,1.027-1.71,0.927-2.636h15.497v26h-4.893c-1.162,0-2.107,0.945-2.107,2.106v1.787
		c0,1.161,0.945,2.106,2.107,2.106h15.786c1.162,0,2.107-0.945,2.107-2.106v-1.787c0-1.161-0.945-2.106-2.107-2.106h-4.893v-26
		h15.402c-0.173,0.948,0.08,1.945,0.767,2.636c1.123,1.13,3.089,1.132,4.212,0l3.493-3.513C58.018,25.676,58.018,23.782,56.86,22.62
		z"/>
</g>
</svg>